<svg t="1719920907744" class="icon" viewBox="0 0 1024 1024" version="1.1" xmlns="http://www.w3.org/2000/svg" p-id="43365" width="30" height="30"><path d="M896 128H128c-35.328 0-64 28.672-64 64v608c0 35.328 28.672 64 64 64h768c35.328 0 64-28.672 64-64V192c0-35.328-28.672-64-64-64zM832 768H192V192h640v576zM384 640H256c-17.696 0-32-14.336-32-32v-64c0-17.696 14.304-32 32-32h128c17.696 0 32 14.304 32 32v64c0 17.664-14.304 32-32 32zM384 448H256c-17.696 0-32-14.336-32-32v-64c0-17.696 14.304-32 32-32h128c17.696 0 32 14.304 32 32v64c0 17.664-14.304 32-32 32zM768 640H640c-17.696 0-32-14.336-32-32v-64c0-17.696 14.304-32 32-32h128c17.696 0 32 14.304 32 32v64c0 17.664-14.304 32-32 32zM768 448H640c-17.696 0-32-14.336-32-32v-64c0-17.696 14.304-32 32-32h128c17.696 0 32 14.304 32 32v64c0 17.664-14.304 32-32 32z" p-id="43366" fill="#eee"></path></svg>