<?xml version="1.0" encoding="UTF-8"?>
<svg version="1.1" xmlns="http://www.w3.org/2000/svg" width="16" height="16">
<path d="M0 0 C5.28 0 10.56 0 16 0 C16 5.28 16 10.56 16 16 C10.72 16 5.44 16 0 16 C0 10.72 0 5.44 0 0 Z " fill="#33ADE3" transform="translate(0,0)"/>
<path d="M0 0 C3.18673962 1.40301147 5.32221406 3.07765071 7.75 5.5625 C8.67039062 6.49255859 8.67039062 6.49255859 9.609375 7.44140625 C11 9 11 9 11 10 C6.05 10 1.1 10 -4 10 C-4 4 -4 4 -2 1.625 C-1.34 1.08875 -0.68 0.5525 0 0 Z " fill="#17437F" transform="translate(4,6)"/>
<path d="M0 0 C2.46800047 1.15173355 4.04783565 2.04783565 6 4 C5.67 5.32 5.34 6.64 5 8 C3.02 5.69 1.04 3.38 -1 1 C-0.67 0.67 -0.34 0.34 0 0 Z " fill="#3B64BA" transform="translate(10,8)"/>
</svg>
